<?xml version="1.0" standalone="no"?>
<!DOCTYPE svg PUBLIC "-//W3C//DTD SVG 20010904//EN"
 "http://www.w3.org/TR/2001/REC-SVG-20010904/DTD/svg10.dtd">
<svg version="1.0" xmlns="http://www.w3.org/2000/svg"
 width="181.000000pt" height="62.000000pt" viewBox="0 0 181.000000 62.000000"
 preserveAspectRatio="xMidYMid meet">

<g transform="translate(0.000000,62.000000) scale(0.100000,-0.100000)"
fill="#000000" stroke="none">
<path d="M128 534 c-26 -14 -54 -51 -45 -60 2 -2 9 7 17 20 16 30 61 50 95 42
13 -3 41 -20 60 -38 l36 -31 31 32 c17 17 41 34 55 37 51 13 113 -39 113 -94
0 -58 -86 -98 -107 -50 -10 22 -10 22 -28 -12 -23 -46 -25 -47 -35 -30 -7 11
-11 11 -24 1 -12 -10 -18 -7 -34 25 -19 37 -20 37 -31 16 -6 -12 -21 -22 -31
-22 -11 0 -20 -4 -20 -10 0 -16 40 -12 46 5 10 24 23 17 41 -21 15 -31 19 -33
29 -19 8 10 14 12 19 6 11 -18 22 -12 35 19 14 34 22 37 40 14 37 -43 117 28
106 95 -6 40 -27 65 -67 81 -37 16 -70 7 -112 -30 l-34 -30 -19 21 c-23 26
-67 49 -91 49 -10 -1 -30 -7 -45 -16z"/>
<path d="M574 509 c-4 -7 0 -15 8 -20 12 -7 14 -20 10 -54 -4 -37 -2 -45 12
-45 12 0 16 10 16 46 0 37 4 47 20 51 11 3 20 9 20 13 0 20 -74 27 -86 9z"/>
<path d="M697 513 c-3 -5 -8 -34 -12 -65 l-7 -58 41 0 c30 0 41 4 41 15 0 9
-9 15 -25 15 -31 0 -33 15 -2 24 21 6 21 7 5 20 -23 17 -23 38 -2 34 10 -2 19
3 21 10 5 13 -52 18 -60 5z"/>
<path d="M906 483 c-3 -21 -6 -51 -6 -66 0 -26 2 -28 37 -25 42 3 59 28 19 28
-14 0 -26 5 -26 10 0 6 7 10 15 10 8 0 15 7 15 15 0 8 -4 15 -10 15 -5 0 -10
7 -10 15 0 9 7 15 16 13 10 -2 19 3 21 10 3 8 -7 12 -30 12 -32 0 -35 -3 -41
-37z"/>
<path d="M1177 513 c-3 -5 -8 -34 -12 -65 l-7 -58 41 0 c30 0 41 4 41 15 0 9
-9 15 -25 15 -31 0 -33 15 -2 24 21 6 21 7 5 20 -23 17 -23 38 -2 34 10 -2 19
3 21 10 5 13 -52 18 -60 5z"/>
<path d="M1270 454 c0 -56 2 -65 16 -60 9 3 20 6 25 6 16 0 49 40 49 60 0 26
-38 60 -67 60 -22 0 -23 -4 -23 -66z m60 12 c0 -13 -20 -36 -30 -36 -4 0 -5
13 -2 29 3 20 8 28 18 24 8 -3 14 -11 14 -17z"/>
<path d="M1607 508 c-20 -16 -47 -79 -47 -113 0 -30 16 -33 25 -5 8 26 31 26
38 -1 4 -13 10 -18 17 -14 8 5 11 28 8 66 -5 67 -16 85 -41 67z m9 -65 c-10
-10 -19 5 -10 18 6 11 8 11 12 0 2 -7 1 -15 -2 -18z"/>
<path d="M797 503 c-4 -3 -7 -31 -7 -61 l0 -54 31 6 c17 3 35 6 40 6 5 0 9 7
9 16 0 12 -6 15 -25 10 -24 -6 -25 -4 -25 39 0 42 -7 54 -23 38z"/>
<path d="M1035 493 c-25 -25 -39 -113 -19 -120 7 -2 14 14 18 41 7 47 26 73
26 37 0 -28 26 -27 36 2 6 17 8 10 11 -30 4 -52 15 -68 27 -37 9 23 7 87 -3
102 -12 19 -79 23 -96 5z"/>
<path d="M1385 454 c-4 -36 -3 -60 4 -67 13 -13 17 -1 26 71 4 41 3 52 -9 52
-9 0 -16 -18 -21 -56z"/>
<path d="M1459 489 c-40 -40 -3 -106 52 -92 31 8 24 34 -8 31 -22 -2 -29 2
-31 19 -3 17 3 26 22 33 14 5 26 14 26 20 0 18 -39 11 -61 -11z"/>
<path d="M1676 488 c-3 -13 -6 -40 -6 -62 l0 -38 37 7 c46 8 55 13 47 27 -3 5
-17 7 -30 4 -23 -6 -24 -4 -24 39 0 48 -14 60 -24 23z"/>
<path d="M71 453 c-2 -33 31 -79 135 -184 63 -64 114 -124 114 -133 0 -9 -11
-28 -25 -42 -20 -20 -22 -25 -8 -22 24 4 46 53 37 81 -3 12 -57 74 -119 137
-62 63 -117 129 -123 145 -6 17 -11 25 -11 18z"/>
<path d="M1165 315 c-30 -29 -32 -68 -5 -95 26 -26 36 -25 65 5 32 31 33 78 3
99 -30 21 -35 20 -63 -9z m53 -34 c4 -22 -13 -51 -29 -51 -15 0 -22 50 -9 65
17 20 34 14 38 -14z"/>
<path d="M580 304 c-13 -33 -13 -124 0 -124 5 0 12 10 15 23 4 12 21 29 38 37
40 19 47 52 15 74 -33 23 -57 20 -68 -10z m55 -25 c0 -7 -8 -15 -17 -17 -18
-3 -25 18 -11 32 10 10 28 1 28 -15z"/>
<path d="M841 304 c-28 -36 -46 -103 -31 -118 8 -8 12 -5 16 12 7 25 29 29 38
7 3 -8 10 -15 16 -15 15 0 9 132 -6 137 -7 2 -21 -8 -33 -23z m19 -39 c0 -8
-4 -15 -10 -15 -5 0 -7 7 -4 15 4 8 8 15 10 15 2 0 4 -7 4 -15z"/>
<path d="M923 324 c-18 -8 -16 -24 2 -24 11 0 15 -12 15 -51 0 -66 24 -62 28
4 2 34 7 47 18 47 9 0 14 6 12 13 -5 13 -54 20 -75 11z"/>
<path d="M1075 321 c-25 -5 -31 -12 -37 -46 -11 -64 -10 -97 5 -93 6 3 13 16
15 31 2 17 10 27 24 29 29 4 36 28 9 28 -29 0 -26 18 4 26 24 6 33 19 18 27
-5 2 -21 1 -38 -2z"/>
<path d="M696 298 c-3 -13 -6 -40 -6 -62 l0 -38 37 7 c46 8 55 13 47 27 -3 5
-17 7 -30 4 -23 -6 -24 -4 -24 39 0 48 -14 60 -24 23z"/>
<path d="M1302 312 c-29 -19 -44 -132 -17 -132 9 0 15 9 15 25 0 30 11 32 35
5 10 -11 22 -20 27 -20 13 0 9 22 -8 41 -13 14 -13 21 -3 37 21 33 -15 65 -49
44z m28 -26 c0 -3 -4 -8 -10 -11 -5 -3 -10 -1 -10 4 0 6 5 11 10 11 6 0 10 -2
10 -4z"/>
<path d="M1424 298 c-20 -21 -32 -118 -15 -118 6 0 13 12 16 28 4 15 9 38 12
52 6 24 7 25 10 3 3 -13 10 -23 18 -23 7 0 16 10 21 23 6 17 8 10 11 -31 3
-36 8 -52 16 -49 15 5 22 106 7 121 -18 18 -78 15 -96 -6z"/>
<path d="M98 219 c-26 -14 -23 -65 3 -80 12 -6 29 -9 39 -6 12 3 30 -8 51 -29
18 -19 40 -34 48 -33 11 0 10 3 -4 9 -37 15 -68 57 -61 83 7 28 -18 67 -42 67
-9 0 -25 -5 -34 -11z m56 -15 c20 -19 20 -29 0 -48 -19 -19 -36 -20 -52 -4
-15 15 -15 41 0 56 16 16 33 15 52 -4z"/>
</g>
</svg>
